<svg version="1.1" id="Layer_1" xmlns="http://www.w3.org/2000/svg" xmlns:xlink="http://www.w3.org/1999/xlink" x="0px" y="0px"
	 width="100%" viewBox="0 0 500 500" enable-background="new 0 0 500 500" xml:space="preserve">
<path fill="#FAB713" opacity="1.000000" stroke="none" 
	d="
M278.000000,501.000000 
	C185.333359,501.000000 93.166710,501.000000 1.000049,501.000000 
	C1.000033,334.333405 1.000033,167.666794 1.000016,1.000139 
	C167.666565,1.000093 334.333130,1.000093 500.999756,1.000046 
	C500.999847,167.666519 500.999847,334.333038 500.999939,500.999786 
	C426.833344,501.000000 352.666656,501.000000 278.000000,501.000000 
M66.993858,303.500000 
	C66.994545,334.827759 66.976982,366.155548 67.031036,397.483215 
	C67.035301,399.950897 67.194580,402.515533 67.864830,404.869049 
	C72.113838,419.789062 84.872032,428.985016 101.245346,428.991211 
	C160.735123,429.013733 220.224915,429.000763 279.714691,429.000763 
	C320.207733,429.000763 360.701019,428.922607 401.193756,429.033630 
	C420.284760,429.085999 435.346680,413.792542 435.235687,395.042297 
	C434.716827,307.393768 435.009155,219.740433 435.000793,132.088806 
	C434.999146,114.756973 421.337341,101.002647 404.002350,100.998619 
	C302.019867,100.974907 200.037399,100.974953 98.054916,100.998146 
	C80.688057,101.002098 67.002792,114.727913 66.999420,132.029266 
	C66.988342,188.852844 66.994377,245.676422 66.993858,303.500000 
z"/>
<path fill="#D39B10" opacity="1.000000" stroke="none" 
	d="
M66.993843,303.000000 
	C66.994377,245.676422 66.988342,188.852844 66.999420,132.029266 
	C67.002792,114.727913 80.688057,101.002098 98.054916,100.998146 
	C200.037399,100.974953 302.019867,100.974907 404.002350,100.998619 
	C421.337341,101.002647 434.999146,114.756973 435.000793,132.088806 
	C435.009155,219.740433 434.716827,307.393768 435.235687,395.042297 
	C435.346680,413.792542 420.284760,429.085999 401.193756,429.033630 
	C360.701019,428.922607 320.207733,429.000763 279.714691,429.000763 
	C220.224915,429.000763 160.735123,429.013733 101.245346,428.991211 
	C84.872032,428.985016 72.113838,419.789062 67.864830,404.869049 
	C67.194580,402.515533 67.035301,399.950897 67.031036,397.483215 
	C66.976982,366.155548 66.994545,334.827759 66.993843,303.000000 
M319.006836,384.998718 
	C319.006836,384.998718 319.019592,384.970154 318.674347,384.404602 
	C316.126068,382.257141 313.577789,380.109680 310.743652,377.585419 
	C310.531464,377.348846 310.289795,377.147675 309.674500,376.414093 
	C307.458679,374.600525 305.242889,372.786957 303.005188,370.998779 
	C303.005188,370.998779 303.018616,370.972473 302.674377,370.405975 
	C300.129059,368.254822 297.583771,366.103638 294.731567,363.469299 
	C294.159088,362.975098 293.586578,362.480865 292.671356,361.417847 
	C290.454132,359.605042 288.236877,357.792236 286.001221,355.998779 
	C286.001221,355.998779 286.014801,355.979889 285.670685,355.409363 
	C279.671722,348.189545 272.703400,344.640472 262.595520,344.748260 
	C211.507019,345.292999 160.409546,345.008636 109.315239,344.970276 
	C106.674194,344.968292 103.902016,344.992249 101.418213,344.246735 
	C95.000946,342.320618 88.711052,339.970093 82.213020,337.734924 
	C82.191628,338.138824 82.141014,339.094421 82.070465,340.980835 
	C82.060028,358.804779 81.967232,376.629242 82.069733,394.452515 
	C82.132240,405.322144 89.623039,412.979279 100.100143,412.981384 
	C182.390396,412.997742 264.680634,412.970825 347.610016,412.983765 
	C348.384674,412.876587 349.159332,412.769409 351.561127,412.437103 
	C348.330688,410.088715 346.180206,408.525391 343.744080,406.585114 
	C343.532196,406.348236 343.290680,406.146881 342.673920,405.412048 
	C337.795013,401.259308 332.916107,397.106537 327.749207,392.578766 
	C327.534698,392.344482 327.291534,392.145203 326.675171,391.412842 
	C324.126587,389.265778 321.578003,387.118713 319.006836,384.998718 
M364.961060,412.972656 
	C376.274506,412.982086 387.614197,412.510712 398.894470,413.127045 
	C411.930664,413.839233 420.031128,406.041565 419.981079,391.938873 
	C419.905457,370.643280 419.933655,349.347351 419.966736,327.105408 
	C419.966736,321.363342 419.966736,315.621277 419.966736,308.990814 
	C417.502411,310.993439 416.262360,312.001160 415.313049,312.349823 
	C416.554962,308.069031 418.858551,303.793030 418.877838,299.506714 
	C419.123779,244.856339 419.249908,190.203094 418.894409,135.553940 
	C418.808014,122.270882 412.701599,115.963181 399.135590,115.979752 
	C300.329559,116.100410 201.523315,116.040939 102.717133,116.049042 
	C88.965004,116.050171 82.080360,122.864906 82.073288,136.614304 
	C82.044487,192.598907 81.995941,248.583771 82.207970,304.567596 
	C82.222137,308.308716 83.561775,312.551758 85.618599,315.686188 
	C92.671127,326.433655 102.921906,331.980072 115.895874,331.987244 
	C170.047638,332.017212 224.199478,332.029968 278.351135,331.940796 
	C282.465729,331.934021 285.593475,333.106659 288.606079,335.975861 
	C294.866730,341.938568 301.475037,347.537811 307.971039,353.251678 
	C325.325470,368.516663 342.696075,383.763245 359.358063,398.987976 
	C356.729797,398.420624 355.632355,399.453979 356.112701,402.109467 
	C356.374817,403.558655 357.038239,405.046783 356.875061,406.441833 
	C356.213989,412.093170 358.869904,413.832428 364.961060,412.972656 
z"/>
<path fill="#F9C136" opacity="1.000000" stroke="none" 
	d="
M360.060272,399.017151 
	C342.696075,383.763245 325.325470,368.516663 307.971039,353.251678 
	C301.475037,347.537811 294.866730,341.938568 288.606079,335.975861 
	C285.593475,333.106659 282.465729,331.934021 278.351135,331.940796 
	C224.199478,332.029968 170.047638,332.017212 115.895874,331.987244 
	C102.921906,331.980072 92.671127,326.433655 85.618599,315.686188 
	C83.561775,312.551758 82.222137,308.308716 82.207970,304.567596 
	C81.995941,248.583771 82.044487,192.598907 82.073288,136.614304 
	C82.080360,122.864906 88.965004,116.050171 102.717133,116.049042 
	C201.523315,116.040939 300.329559,116.100410 399.135590,115.979752 
	C412.701599,115.963181 418.808014,122.270882 418.894409,135.553940 
	C419.249908,190.203094 419.123779,244.856339 418.877838,299.506714 
	C418.858551,303.793030 416.554962,308.069031 415.146790,312.871399 
	C414.980499,313.392944 414.976196,313.779480 414.724213,313.993347 
	C413.919098,315.134735 413.365967,316.062286 412.546326,317.179108 
	C409.507538,320.153259 406.735199,322.938141 403.623535,325.863281 
	C389.213562,335.389984 372.968109,330.596710 357.354156,332.474915 
	C359.450317,347.650604 361.561615,362.261902 363.453644,376.901550 
	C364.488922,384.912018 365.153503,392.970367 365.996948,401.007782 
	C366.008667,401.008423 366.006744,400.985077 365.728760,401.110992 
	C364.300629,401.116974 363.150482,400.997009 361.857544,400.642700 
	C361.163269,399.944611 360.611755,399.480865 360.060272,399.017151 
M111.096085,297.125580 
	C110.971893,296.997406 110.847702,296.869202 110.780380,295.963135 
	C113.304916,286.994843 116.142746,278.096466 118.168282,269.016846 
	C118.798279,266.192841 118.169212,262.197021 116.508278,259.901154 
	C107.451576,247.382248 103.331116,233.602753 103.836281,218.215988 
	C105.274460,174.411209 153.452942,144.689423 193.192215,163.172852 
	C202.961090,167.716537 202.961761,167.716858 207.870605,157.982162 
	C207.937714,157.849106 207.898392,157.662399 207.942581,156.971756 
	C206.677628,156.130493 205.259766,155.007889 203.689606,154.171021 
	C187.513992,145.549881 170.338318,142.811432 152.402573,146.415939 
	C99.283913,157.091034 73.867157,217.907608 103.551964,263.198090 
	C105.299873,265.864929 105.566277,268.106201 104.678986,271.049988 
	C101.269814,282.360779 97.849182,293.679108 94.957802,305.127228 
	C94.242767,307.958344 94.558601,311.904053 96.081039,314.244049 
	C98.314926,317.677521 102.081497,315.700012 105.138947,314.356598 
	C118.091888,308.665161 130.973907,302.807312 144.009781,297.313782 
	C146.594620,296.224487 149.894394,295.701111 152.604355,296.235657 
	C164.120941,298.507324 175.434784,298.027069 186.724915,295.059692 
	C201.264267,291.238342 213.568787,283.837891 223.938309,272.175751 
	C220.798904,269.293427 217.905716,266.637177 215.147232,264.104584 
	C214.399918,264.453674 214.059952,264.536224 213.821655,264.738525 
	C213.188095,265.276489 212.597412,265.865051 211.991302,266.435211 
	C194.650223,282.748077 174.391327,288.130493 151.144119,283.046600 
	C148.473495,282.462494 145.178482,282.993530 142.596985,284.046844 
	C132.124710,288.319702 121.817978,292.998322 111.096085,297.125580 
M228.807251,190.903168 
	C230.571823,216.645828 232.373260,242.386078 234.050629,268.134399 
	C234.243378,271.093018 235.217987,272.441864 238.274185,271.998566 
	C239.752350,271.784149 241.262787,271.718414 242.758789,271.716248 
	C245.952835,271.711548 247.097427,270.342285 246.714584,267.055267 
	C246.021774,261.106995 245.611084,255.120651 245.251022,249.140076 
	C244.720932,240.335388 243.899597,231.516815 243.999985,222.713257 
	C244.137329,210.669632 252.943634,201.808578 264.626709,201.051880 
	C274.012390,200.443985 280.360474,206.774719 282.321167,219.480865 
	C283.358978,226.206223 283.559479,233.062653 284.093994,239.863358 
	C284.832520,249.259064 285.529449,258.658051 286.273254,268.437439 
	C290.563690,268.173615 294.296967,267.944031 298.568604,267.681366 
	C297.486847,252.283295 296.638824,237.361481 295.294403,222.484528 
	C294.760040,216.571518 293.651581,210.591110 291.859253,204.941269 
	C289.620667,197.884857 284.531281,192.823761 277.197479,191.204880 
	C264.864990,188.482605 254.117783,191.474686 245.915955,201.624039 
	C244.930206,202.843842 243.952515,204.070145 242.333084,206.088669 
	C241.100784,189.233887 239.943848,173.409821 238.738846,156.928299 
	C234.428757,157.270065 230.604019,157.573334 226.427307,157.904526 
	C227.225983,169.095108 227.971085,179.535141 228.807251,190.903168 
M349.524780,215.177505 
	C346.430084,215.827118 343.275452,216.273453 340.252258,217.165436 
	C332.001770,219.599670 323.115143,220.967163 315.735718,225.034515 
	C300.999207,233.156937 301.865021,256.615234 316.494080,264.511139 
	C327.366882,270.379608 343.804535,266.664673 351.264343,256.650909 
	C352.195801,255.400543 353.116302,254.141998 354.064545,252.856476 
	C355.029724,256.563934 354.886261,261.349518 357.036652,262.851868 
	C359.442383,264.532623 363.927032,263.237701 368.292084,263.237701 
	C366.515289,243.114822 365.417297,224.162506 362.979614,205.384094 
	C361.379364,193.056549 354.174896,186.889343 341.839661,185.739990 
	C330.963013,184.726547 320.649628,187.314209 311.462799,193.485245 
	C310.516205,194.121094 309.545624,195.555054 309.549164,196.615463 
	C309.559875,199.816437 310.045563,203.015808 310.224396,204.920105 
	C317.398468,202.088684 324.188080,198.482452 331.425873,196.765121 
	C342.870605,194.049606 349.712616,199.277466 351.490540,210.848434 
	C351.689301,212.142120 350.738464,213.612442 349.524780,215.177505 
M394.797302,209.668884 
	C394.461334,204.600632 394.125397,199.532364 393.774506,194.238876 
	C398.198700,193.791763 401.816589,193.313049 405.450195,193.081787 
	C413.734802,192.554535 414.035828,192.209183 412.291504,183.869385 
	C412.192230,183.394638 411.930115,182.953979 411.605408,182.158432 
	C405.632477,182.494095 399.564911,182.835083 393.053558,183.201004 
	C392.364899,175.442139 391.729675,168.285492 391.047791,160.603134 
	C387.725098,161.955872 385.335510,163.161652 382.809235,163.898911 
	C379.573486,164.843231 378.702850,166.832321 379.297974,169.907272 
	C379.582062,171.374924 379.763031,172.880875 379.803131,174.374512 
	C380.099365,185.405045 382.090363,183.963028 370.636505,184.994980 
	C369.675720,185.081528 368.724823,185.277527 367.129181,185.519913 
	C367.460632,188.946304 367.769379,192.138321 368.083435,195.384903 
	C372.674927,195.384903 376.734039,195.384903 381.064697,195.384903 
	C381.393677,199.191025 381.720001,202.660614 381.989044,206.134644 
	C382.966217,218.752975 383.504242,231.422729 384.996918,243.979279 
	C386.816223,259.283417 400.460754,266.428192 414.638550,259.928619 
	C415.876251,259.361206 417.314819,257.731812 417.413727,256.495972 
	C417.613403,254.000549 416.955811,251.436523 416.640656,248.807922 
	C403.684723,253.866653 397.935883,250.388809 396.762085,237.020844 
	C395.989990,228.227875 395.479187,219.411972 394.797302,209.668884 
M172.190140,226.390091 
	C173.507339,221.056351 172.167419,216.948029 168.205978,214.847412 
	C164.309296,212.781143 160.545807,213.014847 157.254791,216.178574 
	C153.273865,220.005463 153.406891,226.266953 157.484055,229.824234 
	C161.945999,233.717194 167.649307,232.638687 172.190140,226.390091 
M143.385651,219.365143 
	C142.087631,218.359146 140.923172,217.055862 139.467102,216.401688 
	C134.703629,214.261627 129.419891,216.447693 127.425491,221.169037 
	C125.439140,225.871307 127.587410,231.349747 132.194580,233.330887 
	C136.901703,235.355042 142.676453,233.434967 144.190887,228.595490 
	C144.995605,226.023941 144.002457,222.889801 143.385651,219.365143 
M186.091339,213.305389 
	C182.496994,215.968246 180.569916,219.731949 182.547394,223.702225 
	C183.846115,226.309692 186.847748,228.811951 189.631607,229.757980 
	C193.545883,231.088165 197.142365,229.106873 199.210510,225.301422 
	C201.168243,221.699158 200.744095,218.091949 198.088928,215.095428 
	C194.997528,211.606583 191.075500,210.923279 186.091339,213.305389 
z"/>
<path fill="#FAB713" opacity="1.000000" stroke="none" 
	d="
M293.014099,361.986664 
	C293.586578,362.480865 294.159088,362.975098 294.944183,364.054016 
	C297.777405,366.749969 300.398010,368.861206 303.018616,370.972473 
	C303.018616,370.972473 303.005188,370.998779 303.080017,371.327942 
	C305.442780,373.432007 307.730713,375.206970 310.018646,376.981934 
	C310.289795,377.147675 310.531464,377.348846 310.948669,378.115662 
	C313.775665,380.753998 316.397644,382.862061 319.019592,384.970154 
	C319.019592,384.970154 319.006836,384.998718 319.080627,385.325928 
	C321.776154,387.762390 324.397919,389.871643 327.019653,391.980927 
	C327.291534,392.145203 327.534698,392.344482 327.952271,393.107971 
	C333.110107,397.751801 338.064819,401.866394 343.019531,405.981018 
	C343.290680,406.146881 343.532196,406.348236 343.947357,407.111359 
	C345.090698,409.410828 346.030792,411.184021 346.970886,412.957214 
	C264.680634,412.970825 182.390396,412.997742 100.100143,412.981384 
	C89.623039,412.979279 82.132240,405.322144 82.069733,394.452515 
	C81.967232,376.629242 82.060028,358.804779 82.431511,340.524994 
	C83.954102,340.645325 85.337128,340.985443 86.242447,341.834778 
	C94.097046,349.203461 103.546997,352.015778 114.096352,352.009735 
	C159.042831,351.983948 203.990219,351.843079 248.935257,352.099884 
	C261.362244,352.170898 274.205597,349.525970 286.014801,355.979889 
	C286.014801,355.979889 286.001221,355.998779 286.076721,356.330139 
	C288.439484,358.436554 290.726776,360.211609 293.014099,361.986664 
z"/>
<path fill="#F9B713" opacity="1.000000" stroke="none" 
	d="
M419.917725,328.051544 
	C419.933655,349.347351 419.905457,370.643280 419.981079,391.938873 
	C420.031128,406.041565 411.930664,413.839233 398.894470,413.127045 
	C387.614197,412.510712 376.274506,412.982086 364.515717,412.586304 
	C365.639679,411.129547 367.100708,409.395905 368.799530,409.118500 
	C373.137970,408.410034 374.839935,406.330109 374.253479,401.987579 
	C372.370605,388.045471 370.649139,374.081451 368.745087,360.142334 
	C367.807922,353.281952 368.807281,351.959625 375.971252,352.012115 
	C390.394257,352.117798 401.898193,346.574982 410.800934,335.089630 
	C413.077484,332.152649 416.838654,330.366455 419.917725,328.051544 
z"/>
<path fill="#ECAD11" opacity="1.000000" stroke="none" 
	d="
M285.842743,355.694641 
	C274.205597,349.525970 261.362244,352.170898 248.935257,352.099884 
	C203.990219,351.843079 159.042831,351.983948 114.096352,352.009735 
	C103.546997,352.015778 94.097046,349.203461 86.242447,341.834778 
	C85.337128,340.985443 83.954102,340.645325 82.441483,340.059601 
	C82.141014,339.094421 82.191628,338.138824 82.213020,337.734924 
	C88.711052,339.970093 95.000946,342.320618 101.418213,344.246735 
	C103.902016,344.992249 106.674194,344.968292 109.315239,344.970276 
	C160.409546,345.008636 211.507019,345.292999 262.595520,344.748260 
	C272.703400,344.640472 279.671722,348.189545 285.842743,355.694641 
z"/>
<path fill="#EAAB11" opacity="1.000000" stroke="none" 
	d="
M419.942230,327.578491 
	C416.838654,330.366455 413.077484,332.152649 410.800934,335.089630 
	C401.898193,346.574982 390.394257,352.117798 375.971252,352.012115 
	C368.807281,351.959625 367.807922,353.281952 368.745087,360.142334 
	C370.649139,374.081451 372.370605,388.045471 374.253479,401.987579 
	C374.839935,406.330109 373.137970,408.410034 368.799530,409.118500 
	C367.100708,409.395905 365.639679,411.129547 364.048798,412.580292 
	C358.869904,413.832428 356.213989,412.093170 356.875061,406.441833 
	C357.038239,405.046783 356.374817,403.558655 356.112701,402.109467 
	C355.632355,399.453979 356.729797,398.420624 359.709167,399.002563 
	C360.611755,399.480865 361.163269,399.944611 361.956268,400.965759 
	C363.467438,401.343781 364.737091,401.164429 366.006744,400.985077 
	C366.006744,400.985077 366.008667,401.008423 366.340271,400.861938 
	C367.069580,399.370789 367.957947,397.961304 367.790039,396.691467 
	C365.854797,382.054382 363.841339,367.426392 361.673218,352.821960 
	C360.533234,345.142883 360.509644,345.030365 368.378784,344.991547 
	C377.675446,344.945679 386.799835,343.777771 394.250122,337.704315 
	C398.216064,334.471283 403.238922,331.733002 403.962860,325.723022 
	C406.735199,322.938141 409.507538,320.153259 412.893433,317.082275 
	C413.996704,315.790588 414.486450,314.785034 414.976196,313.779480 
	C414.976196,313.779480 414.980499,313.392944 415.001404,313.200928 
	C416.262360,312.001160 417.502411,310.993439 419.966736,308.990814 
	C419.966736,315.621277 419.966736,321.363342 419.942230,327.578491 
z"/>
<path fill="#ECAD11" opacity="1.000000" stroke="none" 
	d="
M342.846741,405.696533 
	C338.064819,401.866394 333.110107,397.751801 328.096283,393.295502 
	C332.916107,397.106537 337.795013,401.259308 342.846741,405.696533 
z"/>
<path fill="#ECAD11" opacity="1.000000" stroke="none" 
	d="
M302.846497,370.689209 
	C300.398010,368.861206 297.777405,366.749969 295.097626,364.295593 
	C297.583771,366.103638 300.129059,368.254822 302.846497,370.689209 
z"/>
<path fill="#ECAD11" opacity="1.000000" stroke="none" 
	d="
M318.846985,384.687378 
	C316.397644,382.862061 313.775665,380.753998 311.091614,378.304077 
	C313.577789,380.109680 316.126068,382.257141 318.846985,384.687378 
z"/>
<path fill="#ECAD11" opacity="1.000000" stroke="none" 
	d="
M326.847412,391.696899 
	C324.397919,389.871643 321.776154,387.762390 319.091919,385.312378 
	C321.578003,387.118713 324.126587,389.265778 326.847412,391.696899 
z"/>
<path fill="#ECAD11" opacity="1.000000" stroke="none" 
	d="
M347.290466,412.970490 
	C346.030792,411.184021 345.090698,409.410828 344.090179,407.299866 
	C346.180206,408.525391 348.330688,410.088715 351.561127,412.437103 
	C349.159332,412.769409 348.384674,412.876587 347.290466,412.970490 
z"/>
<path fill="#ECAD11" opacity="1.000000" stroke="none" 
	d="
M292.842712,361.702271 
	C290.726776,360.211609 288.439484,358.436554 286.085938,356.320435 
	C288.236877,357.792236 290.454132,359.605042 292.842712,361.702271 
z"/>
<path fill="#ECAD11" opacity="1.000000" stroke="none" 
	d="
M309.846558,376.697998 
	C307.730713,375.206970 305.442780,373.432007 303.090942,371.315247 
	C305.242889,372.786957 307.458679,374.600525 309.846558,376.697998 
z"/>
<path fill="#71706D" opacity="1.000000" stroke="none" 
	d="
M111.450180,297.527283 
	C121.817978,292.998322 132.124710,288.319702 142.596985,284.046844 
	C145.178482,282.993530 148.473495,282.462494 151.144119,283.046600 
	C174.391327,288.130493 194.650223,282.748077 211.991302,266.435211 
	C212.597412,265.865051 213.188095,265.276489 213.821655,264.738525 
	C214.059952,264.536224 214.399918,264.453674 215.147232,264.104584 
	C217.905716,266.637177 220.798904,269.293427 223.938309,272.175751 
	C213.568787,283.837891 201.264267,291.238342 186.724915,295.059692 
	C175.434784,298.027069 164.120941,298.507324 152.604355,296.235657 
	C149.894394,295.701111 146.594620,296.224487 144.009781,297.313782 
	C130.973907,302.807312 118.091888,308.665161 105.138947,314.356598 
	C102.081497,315.700012 98.314926,317.677521 96.081039,314.244049 
	C94.558601,311.904053 94.242767,307.958344 94.957802,305.127228 
	C97.849182,293.679108 101.269814,282.360779 104.678986,271.049988 
	C105.566277,268.106201 105.299873,265.864929 103.551964,263.198090 
	C73.867157,217.907608 99.283913,157.091034 152.402573,146.415939 
	C170.338318,142.811432 187.513992,145.549881 203.689606,154.171021 
	C205.259766,155.007889 206.677628,156.130493 207.942581,156.971756 
	C207.898392,157.662399 207.937714,157.849106 207.870605,157.982162 
	C202.961761,167.716858 202.961090,167.716537 193.192215,163.172852 
	C153.452942,144.689423 105.274460,174.411209 103.836281,218.215988 
	C103.331116,233.602753 107.451576,247.382248 116.508278,259.901154 
	C118.169212,262.197021 118.798279,266.192841 118.168282,269.016846 
	C116.142746,278.096466 113.304916,286.994843 110.614273,296.499634 
	C110.782166,297.199860 111.116173,297.363586 111.450180,297.527283 
z"/>
<path fill="#71706D" opacity="1.000000" stroke="none" 
	d="
M228.761719,190.439178 
	C227.971085,179.535141 227.225983,169.095108 226.427307,157.904526 
	C230.604019,157.573334 234.428757,157.270065 238.738846,156.928299 
	C239.943848,173.409821 241.100784,189.233887 242.333084,206.088669 
	C243.952515,204.070145 244.930206,202.843842 245.915955,201.624039 
	C254.117783,191.474686 264.864990,188.482605 277.197479,191.204880 
	C284.531281,192.823761 289.620667,197.884857 291.859253,204.941269 
	C293.651581,210.591110 294.760040,216.571518 295.294403,222.484528 
	C296.638824,237.361481 297.486847,252.283295 298.568604,267.681366 
	C294.296967,267.944031 290.563690,268.173615 286.273254,268.437439 
	C285.529449,258.658051 284.832520,249.259064 284.093994,239.863358 
	C283.559479,233.062653 283.358978,226.206223 282.321167,219.480865 
	C280.360474,206.774719 274.012390,200.443985 264.626709,201.051880 
	C252.943634,201.808578 244.137329,210.669632 243.999985,222.713257 
	C243.899597,231.516815 244.720932,240.335388 245.251022,249.140076 
	C245.611084,255.120651 246.021774,261.106995 246.714584,267.055267 
	C247.097427,270.342285 245.952835,271.711548 242.758789,271.716248 
	C241.262787,271.718414 239.752350,271.784149 238.274185,271.998566 
	C235.217987,272.441864 234.243378,271.093018 234.050629,268.134399 
	C232.373260,242.386078 230.571823,216.645828 228.761719,190.439178 
z"/>
<path fill="#71706D" opacity="1.000000" stroke="none" 
	d="
M349.922729,215.089172 
	C350.738464,213.612442 351.689301,212.142120 351.490540,210.848434 
	C349.712616,199.277466 342.870605,194.049606 331.425873,196.765121 
	C324.188080,198.482452 317.398468,202.088684 310.224396,204.920105 
	C310.045563,203.015808 309.559875,199.816437 309.549164,196.615463 
	C309.545624,195.555054 310.516205,194.121094 311.462799,193.485245 
	C320.649628,187.314209 330.963013,184.726547 341.839661,185.739990 
	C354.174896,186.889343 361.379364,193.056549 362.979614,205.384094 
	C365.417297,224.162506 366.515289,243.114822 368.292084,263.237701 
	C363.927032,263.237701 359.442383,264.532623 357.036652,262.851868 
	C354.886261,261.349518 355.029724,256.563934 354.064545,252.856476 
	C353.116302,254.141998 352.195801,255.400543 351.264343,256.650909 
	C343.804535,266.664673 327.366882,270.379608 316.494080,264.511139 
	C301.865021,256.615234 300.999207,233.156937 315.735718,225.034515 
	C323.115143,220.967163 332.001770,219.599670 340.252258,217.165436 
	C343.275452,216.273453 346.430084,215.827118 349.922729,215.089172 
M318.347778,246.701324 
	C319.553406,251.466553 322.552826,254.615555 327.230957,255.923523 
	C335.394470,258.206024 344.760376,254.419952 349.528320,247.325256 
	C354.176910,240.408127 353.434326,232.925888 352.481873,224.474045 
	C344.176239,226.448669 336.201782,227.949677 328.479523,230.284744 
	C319.676514,232.946579 317.679230,236.473755 318.347778,246.701324 
z"/>
<path fill="#71706D" opacity="1.000000" stroke="none" 
	d="
M394.824341,210.137604 
	C395.479187,219.411972 395.989990,228.227875 396.762085,237.020844 
	C397.935883,250.388809 403.684723,253.866653 416.640656,248.807922 
	C416.955811,251.436523 417.613403,254.000549 417.413727,256.495972 
	C417.314819,257.731812 415.876251,259.361206 414.638550,259.928619 
	C400.460754,266.428192 386.816223,259.283417 384.996918,243.979279 
	C383.504242,231.422729 382.966217,218.752975 381.989044,206.134644 
	C381.720001,202.660614 381.393677,199.191025 381.064697,195.384903 
	C376.734039,195.384903 372.674927,195.384903 368.083435,195.384903 
	C367.769379,192.138321 367.460632,188.946304 367.129181,185.519913 
	C368.724823,185.277527 369.675720,185.081528 370.636505,184.994980 
	C382.090363,183.963028 380.099365,185.405045 379.803131,174.374512 
	C379.763031,172.880875 379.582062,171.374924 379.297974,169.907272 
	C378.702850,166.832321 379.573486,164.843231 382.809235,163.898911 
	C385.335510,163.161652 387.725098,161.955872 391.047791,160.603134 
	C391.729675,168.285492 392.364899,175.442139 393.053558,183.201004 
	C399.564911,182.835083 405.632477,182.494095 411.605408,182.158432 
	C411.930115,182.953979 412.192230,183.394638 412.291504,183.869385 
	C414.035828,192.209183 413.734802,192.554535 405.450195,193.081787 
	C401.816589,193.313049 398.198700,193.791763 393.774506,194.238876 
	C394.125397,199.532364 394.461334,204.600632 394.824341,210.137604 
z"/>
<path fill="#D39B10" opacity="1.000000" stroke="none" 
	d="
M403.623535,325.863281 
	C403.238922,331.733002 398.216064,334.471283 394.250122,337.704315 
	C386.799835,343.777771 377.675446,344.945679 368.378784,344.991547 
	C360.509644,345.030365 360.533234,345.142883 361.673218,352.821960 
	C363.841339,367.426392 365.854797,382.054382 367.790039,396.691467 
	C367.957947,397.961304 367.069580,399.370789 366.328552,400.861267 
	C365.153503,392.970367 364.488922,384.912018 363.453644,376.901550 
	C361.561615,362.261902 359.450317,347.650604 357.354156,332.474915 
	C372.968109,330.596710 389.213562,335.389984 403.623535,325.863281 
z"/>
<path fill="#72706C" opacity="1.000000" stroke="none" 
	d="
M172.035431,226.745941 
	C167.649307,232.638687 161.945999,233.717194 157.484055,229.824234 
	C153.406891,226.266953 153.273865,220.005463 157.254791,216.178574 
	C160.545807,213.014847 164.309296,212.781143 168.205978,214.847412 
	C172.167419,216.948029 173.507339,221.056351 172.035431,226.745941 
z"/>
<path fill="#71706D" opacity="1.000000" stroke="none" 
	d="
M143.603256,219.687378 
	C144.002457,222.889801 144.995605,226.023941 144.190887,228.595490 
	C142.676453,233.434967 136.901703,235.355042 132.194580,233.330887 
	C127.587410,231.349747 125.439140,225.871307 127.425491,221.169037 
	C129.419891,216.447693 134.703629,214.261627 139.467102,216.401688 
	C140.923172,217.055862 142.087631,218.359146 143.603256,219.687378 
z"/>
<path fill="#706F6D" opacity="1.000000" stroke="none" 
	d="
M186.435394,213.104935 
	C191.075500,210.923279 194.997528,211.606583 198.088928,215.095428 
	C200.744095,218.091949 201.168243,221.699158 199.210510,225.301422 
	C197.142365,229.106873 193.545883,231.088165 189.631607,229.757980 
	C186.847748,228.811951 183.846115,226.309692 182.547394,223.702225 
	C180.569916,219.731949 182.496994,215.968246 186.435394,213.104935 
z"/>
<path fill="#D39B10" opacity="1.000000" stroke="none" 
	d="
M365.728760,401.110992 
	C364.737091,401.164429 363.467438,401.343781 362.099060,401.200134 
	C363.150482,400.997009 364.300629,401.116974 365.728760,401.110992 
z"/>
<path fill="#D39B10" opacity="1.000000" stroke="none" 
	d="
M414.724213,313.993347 
	C414.486450,314.785034 413.996704,315.790588 413.159882,316.893005 
	C413.365967,316.062286 413.919098,315.134735 414.724213,313.993347 
z"/>
<path fill="#F9C136" opacity="1.000000" stroke="none" 
	d="
M111.273132,297.326416 
	C111.116173,297.363586 110.782166,297.199860 110.585831,296.888550 
	C110.847702,296.869202 110.971893,296.997406 111.273132,297.326416 
z"/>
<path fill="#F8C037" opacity="1.000000" stroke="none" 
	d="
M318.265076,246.295990 
	C317.679230,236.473755 319.676514,232.946579 328.479523,230.284744 
	C336.201782,227.949677 344.176239,226.448669 352.481873,224.474045 
	C353.434326,232.925888 354.176910,240.408127 349.528320,247.325256 
	C344.760376,254.419952 335.394470,258.206024 327.230957,255.923523 
	C322.552826,254.615555 319.553406,251.466553 318.265076,246.295990 
z"/>
</svg>